<?xml version="1.0" encoding="utf-8"?>
<!-- Generator: Adobe Illustrator 23.0.2, SVG Export Plug-In . SVG Version: 6.00 Build 0)  -->
<svg version="1.1" id="logo" xmlns="http://www.w3.org/2000/svg" xmlns:xlink="http://www.w3.org/1999/xlink" x="0px" y="0px"
	 viewBox="0 0 1200 1200" style="enable-background:new 0 0 1200 1200;" xml:space="preserve">
<style type="text/css">
	.st0{fill:transparent;}
	.st1{fill:transparent;
			-webkit-animation: desarrollo 6s forwards 3s;
			-moz-animation: desarrollo 6s forwards 3s;
			-o-animation: desarrollo 6s forwards 3s;
			animation: desarrollo 6s forwards 3s;
	}
	.st2{fill:transparent;
			-webkit-animation: sombra 1s forwards 4s;
			-moz-animation: sombra 1s forwards 4s;
			-o-animation: sombra 1s forwards 4s;
			animation: sombra 1s forwards 4s;
	}
	.st3{fill:transparent;
			-webkit-animation: gabel 1s forwards 4s;
			-moz-animation: gabel 1s forwards 4s;
			-o-animation: gabel 1s forwards 4s;
			animation: gabel 1s forwards 4s;
	}
	.st4{fill:none;
	stroke:#FFFFFF;
	stroke-width:2;
	stroke-dasharray: 1400;
	stroke-dashoffset: 0;
	stroke-miterlimit:10;
	-webkit-animation: animacion 5s forwards;
			-moz-animation: animacion 5s forwards;
			-o-animation: animacion 5s forwards;
			animation: animacion 5s forwards;}

			@-webkit-keyframes animacion {
			0% {
				stroke-dashoffset: 1400;
			}
			90% {
				stroke: #fff;
			}

			100% {
				stroke-dashoffset: 0;
				stroke: transparent;
			}
		}
		@-webkit-keyframes gabel {
			from {
				fill: transparent;
			}

			to {
				fill: url(#Gabel_1_);
			}
		}
			@-webkit-keyframes sombra {
			from {
				fill: transparent;
			}

			to {
				fill:url(#Sombra_1_);
			}
		}
		@-webkit-keyframes desarrollo {
			from {
				fill: transparent;
			}

			to {
				fill:#CDCCCC;;
			}
		}
</style>
<rect id="Fondo" x="-0.3" y="-1.4" class="st0" width="1199.5" height="1198.1"/>
<path id="Desarrollo" class="st1" d="M152.1,859.6v-64.8h14.1c7,0,11.9,1.6,14.8,4.8c2.9,3.2,4.3,8.2,4.3,15v23.8
	c0,7.1-1.4,12.4-4.3,15.9c-2.9,3.5-7.6,5.3-14.2,5.3H152.1z M161.1,853.1h5.1c1.4,0,2.6-0.1,3.7-0.4s1.9-0.6,2.6-1
	c0.7-0.4,1.3-1,1.8-1.8c0.5-0.8,0.8-1.6,1.1-2.3c0.2-0.7,0.4-1.7,0.6-3.1c0.1-1.4,0.2-2.6,0.2-3.5c0-1,0-2.4,0-4.2v-21.1
	c0-1.6,0-2.9-0.1-3.9c-0.1-1.1-0.2-2.1-0.3-3.2c-0.2-1.1-0.4-1.9-0.7-2.6c-0.3-0.7-0.7-1.3-1.2-1.9c-0.5-0.6-1.1-1.1-1.8-1.4
	c-0.7-0.3-1.6-0.6-2.6-0.8c-1-0.2-2.1-0.3-3.5-0.3h-4.9V853.1z M242.3,859.6v-64.8h25.1v6.7h-16.1v21.4h13v6.4h-13v23.8h16.2v6.5
	H242.3z M338.1,860.3c-5.4,0-9.6-1.7-12.4-5s-4.4-8-4.8-13.8l8-2.2c0.6,9.3,3.6,13.9,9.2,13.9c2.3,0,4.1-0.6,5.3-1.9
	s1.8-3.2,1.8-5.7c0-1.4-0.2-2.6-0.5-3.8c-0.3-1.1-0.9-2.2-1.6-3.3c-0.7-1-1.4-1.9-2.1-2.6c-0.7-0.7-1.6-1.6-2.8-2.8l-10.9-9.6
	c-2.2-2-3.8-4.1-4.8-6.3c-1-2.2-1.5-4.9-1.5-8.1c0-4.7,1.4-8.3,4.1-11c2.7-2.6,6.4-4,11.2-4c5.2-0.1,9.1,1.3,11.6,4
	c2.6,2.7,4.1,7,4.6,12.8l-7.6,2.1c-0.1-1.4-0.2-2.7-0.4-3.8c-0.2-1.1-0.5-2.2-0.9-3.3c-0.4-1.1-0.9-2-1.5-2.7
	c-0.6-0.7-1.4-1.2-2.4-1.6c-1-0.4-2.1-0.6-3.4-0.5c-4.8,0.3-7.1,2.7-7.1,7.1c0,1.9,0.3,3.5,1,4.8c0.7,1.3,1.7,2.6,3.3,4l10.9,9.6
	c2.8,2.6,5.1,5.3,6.8,8.2c1.7,2.9,2.5,6.2,2.5,9.9c0,4.7-1.4,8.5-4.3,11.3C346.4,858.9,342.7,860.3,338.1,860.3z M405.1,859.6
	l13.8-64.8h8.7l13.8,64.8h-8.6l-3-16.3h-13.2l-3.1,16.3H405.1z M417.9,836.8h10.8l-5.4-29.3L417.9,836.8z M496,859.6v-64.8h13
	c6.6,0,11.4,1.3,14.4,4c3.1,2.7,4.6,7.1,4.6,13.1c0,8.3-2.7,13.4-8,15.1l9.3,32.5h-8.8l-8.5-30.4h-7v30.4H496z M505,822.7h3.4
	c3.9,0,6.7-0.8,8.4-2.3c1.7-1.5,2.5-4.4,2.5-8.4c0-3.9-0.7-6.7-2.2-8.3c-1.4-1.6-4.2-2.4-8.2-2.4h-4V822.7z M585.5,859.6v-64.8h13
	c6.6,0,11.4,1.3,14.4,4c3.1,2.7,4.6,7.1,4.6,13.1c0,8.3-2.7,13.4-8,15.1l9.3,32.5h-8.8l-8.5-30.4h-7v30.4H585.5z M594.6,822.7h3.4
	c3.9,0,6.7-0.8,8.4-2.3c1.7-1.5,2.5-4.4,2.5-8.4c0-3.9-0.7-6.7-2.2-8.3c-1.4-1.6-4.2-2.4-8.2-2.4h-4V822.7z M691.6,860.3
	c-3.2,0-6-0.5-8.3-1.4s-4.1-2.4-5.5-4.3c-1.4-1.9-2.3-4.1-3-6.6s-0.9-5.4-0.9-8.8v-24.5c0-6.7,1.4-11.9,4.1-15.3
	c2.7-3.5,7.3-5.2,13.6-5.2c6.3,0,10.8,1.8,13.6,5.3c2.8,3.5,4.1,8.6,4.1,15.3v24.6c0,6.7-1.4,11.9-4.2,15.5
	C702.3,858.5,697.8,860.3,691.6,860.3z M687.2,852.4c1.2,0.5,2.6,0.8,4.4,0.8c1.8,0,3.2-0.3,4.4-0.8c1.2-0.5,2-1.4,2.6-2.5
	c0.6-1.1,1-2.3,1.2-3.7c0.2-1.3,0.3-3,0.3-5v-28.4c0-2-0.1-3.6-0.3-4.9c-0.2-1.3-0.6-2.5-1.2-3.6c-0.6-1.1-1.5-1.9-2.6-2.4
	c-1.2-0.5-2.6-0.8-4.4-0.8c-1.8,0-3.2,0.3-4.4,0.8c-1.2,0.5-2,1.3-2.6,2.4c-0.6,1.1-1,2.3-1.2,3.6c-0.2,1.3-0.3,2.9-0.3,4.9v28.4
	c0,2,0.1,3.6,0.3,5c0.2,1.3,0.6,2.6,1.2,3.7C685.1,851,686,851.9,687.2,852.4z M766.2,859.6v-64.8h9v58.3h16.5v6.5H766.2z
	 M846,859.6v-64.8h9v58.3h16.5v6.5H846z M941.6,860.3c-3.2,0-6-0.5-8.3-1.4s-4.1-2.4-5.5-4.3c-1.4-1.9-2.3-4.1-3-6.6
	s-0.9-5.4-0.9-8.8v-24.5c0-6.7,1.4-11.9,4.1-15.3c2.7-3.5,7.3-5.2,13.6-5.2c6.3,0,10.8,1.8,13.6,5.3c2.8,3.5,4.1,8.6,4.1,15.3v24.6
	c0,6.7-1.4,11.9-4.2,15.5C952.4,858.5,947.9,860.3,941.6,860.3z M937.3,852.4c1.2,0.5,2.6,0.8,4.4,0.8c1.8,0,3.2-0.3,4.4-0.8
	c1.2-0.5,2-1.4,2.6-2.5c0.6-1.1,1-2.3,1.2-3.7c0.2-1.3,0.3-3,0.3-5v-28.4c0-2-0.1-3.6-0.3-4.9c-0.2-1.3-0.6-2.5-1.2-3.6
	c-0.6-1.1-1.5-1.9-2.6-2.4c-1.2-0.5-2.6-0.8-4.4-0.8c-1.8,0-3.2,0.3-4.4,0.8c-1.2,0.5-2,1.3-2.6,2.4c-0.6,1.1-1,2.3-1.2,3.6
	c-0.2,1.3-0.3,2.9-0.3,4.9v28.4c0,2,0.1,3.6,0.3,5c0.2,1.3,0.6,2.6,1.2,3.7C935.2,851,936.1,851.9,937.3,852.4z M1031.5,860.3
	c-5.4,0-9.6-1.7-12.4-5s-4.4-8-4.8-13.8l8-2.2c0.6,9.3,3.6,13.9,9.2,13.9c2.3,0,4.1-0.6,5.3-1.9s1.8-3.2,1.8-5.7
	c0-1.4-0.2-2.6-0.5-3.8c-0.3-1.1-0.9-2.2-1.6-3.3c-0.7-1-1.4-1.9-2.1-2.6c-0.7-0.7-1.6-1.6-2.8-2.8l-10.9-9.6
	c-2.2-2-3.8-4.1-4.8-6.3c-1-2.2-1.5-4.9-1.5-8.1c0-4.7,1.4-8.3,4.1-11c2.7-2.6,6.4-4,11.2-4c5.2-0.1,9.1,1.3,11.6,4
	c2.6,2.7,4.1,7,4.6,12.8l-7.6,2.1c-0.1-1.4-0.2-2.7-0.4-3.8c-0.2-1.1-0.5-2.2-0.9-3.3c-0.4-1.1-0.9-2-1.5-2.7
	c-0.6-0.7-1.4-1.2-2.4-1.6c-1-0.4-2.1-0.6-3.4-0.5c-4.8,0.3-7.1,2.7-7.1,7.1c0,1.9,0.3,3.5,1,4.8c0.7,1.3,1.7,2.6,3.3,4l10.9,9.6
	c2.8,2.6,5.1,5.3,6.8,8.2c1.7,2.9,2.5,6.2,2.5,9.9c0,4.7-1.4,8.5-4.3,11.3C1039.9,858.9,1036.1,860.3,1031.5,860.3z M127.6,986.6
	l22.5-105.5h14.2l22.5,105.5h-14L168,960h-21.4l-5,26.6H127.6z M148.4,949.5h17.6l-8.8-47.7L148.4,949.5z M200.8,986.6V881.1H222
	c10.7,0,18.5,2.2,23.5,6.6c5,4.4,7.5,11.5,7.5,21.4c0,13.6-4.3,21.8-13,24.6l15.1,53h-14.3l-13.9-49.5h-11.4v49.5H200.8z
	 M215.5,926.5h5.5c6.4,0,11-1.3,13.7-3.8c2.7-2.5,4.1-7.1,4.1-13.7c0-6.4-1.2-10.9-3.5-13.5c-2.4-2.6-6.8-3.9-13.3-3.9h-6.5V926.5z
	 M320.1,1007.9c-5.5-2.8-11.8-9.5-19-20.2c-0.3,0-0.7,0-1.2,0c-0.6,0-1,0-1.3,0c-10.3,0-17.7-2.9-22.1-8.8
	c-4.5-5.9-6.7-14.4-6.7-25.4v-40c0-10.9,2.2-19.3,6.7-24.9c4.5-5.7,11.9-8.5,22.1-8.5c10.2,0,17.6,2.9,22.1,8.6
	c4.5,5.7,6.8,14,6.8,24.9v40c0,16.8-5.2,27.4-15.5,31.8c4.4,5.6,7.8,9.3,10.4,11L320.1,1007.9z M291.4,974.9
	c1.9,0.9,4.3,1.3,7.2,1.3c2.9,0,5.3-0.4,7.2-1.3c1.9-0.9,3.3-2.2,4.3-4.1c1-1.8,1.7-3.8,2-6c0.4-2.2,0.5-4.9,0.5-8.1v-46.2
	c0-3.2-0.2-5.8-0.5-8c-0.4-2.1-1-4.1-2-5.9c-1-1.8-2.4-3.1-4.3-3.9c-1.9-0.8-4.3-1.2-7.2-1.2c-2.9,0-5.3,0.4-7.2,1.2
	c-1.9,0.8-3.3,2.1-4.3,3.9c-1,1.8-1.7,3.7-2,5.9c-0.4,2.1-0.5,4.8-0.5,8v46.2c0,3.2,0.2,5.9,0.5,8.1c0.4,2.2,1,4.2,2,6
	C288.1,972.6,289.6,974,291.4,974.9z M384.3,986c-3.3,1.2-7.2,1.8-11.7,1.8c-4.5,0-8.4-0.6-11.7-1.8c-3.3-1.2-6-2.8-8.1-4.8
	c-2.1-2-3.7-4.6-5-7.8c-1.3-3.2-2.1-6.5-2.6-10.1c-0.5-3.5-0.7-7.7-0.7-12.4v-69.9h14v70.6c0,3,0.1,5.6,0.3,7.8
	c0.2,2.2,0.6,4.4,1.1,6.7c0.6,2.2,1.4,4,2.4,5.4c1,1.4,2.4,2.5,4.1,3.3c1.7,0.9,3.8,1.3,6.2,1.3s4.5-0.4,6.2-1.3
	c1.7-0.9,3.1-2,4.1-3.4c1-1.4,1.8-3.2,2.4-5.4c0.6-2.2,1-4.4,1.1-6.6c0.2-2.2,0.3-4.8,0.3-7.8v-70.6h14V951c0,4.7-0.2,8.8-0.7,12.4
	c-0.5,3.5-1.3,6.9-2.6,10.1c-1.3,3.2-2.9,5.8-5,7.8C390.3,983.2,387.6,984.8,384.3,986z M420.2,986.6V881.1h14.4v105.5H420.2z
	 M465.8,986.6V892h-19.3v-10.9h52.6V892h-18.6v94.6H465.8z M510.5,986.6V881.1h40.9V892h-26.2v34.9h21.3v10.5h-21.3V976h26.5v10.6
	H510.5z M593.1,987.7c-4.4,0-8.2-0.6-11.5-1.8s-6-2.8-8.1-4.8c-2.1-2-3.8-4.6-5.2-7.6c-1.3-3-2.3-6.2-2.8-9.6
	c-0.5-3.4-0.8-7.1-0.8-11.3v-37.3c0-4.5,0.3-8.4,0.8-11.9c0.5-3.5,1.5-6.7,2.8-9.7c1.3-3,3-5.5,5.2-7.4c2.1-2,4.8-3.5,8.1-4.6
	c3.3-1.1,7.1-1.7,11.5-1.7c9.5,0,16.3,2.6,20.4,7.7c4.1,5.1,6.2,12.7,6.2,22.7v8.4h-13.9v-7.4c0-1.6,0-2.9,0-3.8
	c0-0.9-0.1-2-0.1-3.4c-0.1-1.4-0.2-2.4-0.3-3.2c-0.2-0.8-0.4-1.7-0.7-2.7c-0.3-1-0.6-1.8-1-2.4c-0.4-0.6-1-1.2-1.6-1.8
	c-0.6-0.7-1.4-1.1-2.2-1.5c-0.8-0.3-1.8-0.6-2.9-0.8c-1.1-0.2-2.3-0.3-3.7-0.3c-2,0-3.8,0.2-5.3,0.7c-1.5,0.4-2.8,1.1-3.8,2.1
	c-1,1-1.8,2-2.4,3.2c-0.6,1.1-1.1,2.6-1.4,4.4c-0.3,1.8-0.5,3.5-0.6,5.2c-0.1,1.7-0.2,3.7-0.2,6.2V955c0,7.9,1,13.5,3,16.5
	c2,3.1,5.5,4.6,10.6,4.6c2,0,3.6-0.2,5.1-0.6c1.4-0.4,2.6-1.1,3.5-2.1c0.9-1,1.6-2,2.2-3.1c0.6-1.1,1-2.5,1.2-4.3
	c0.3-1.8,0.4-3.5,0.5-5s0.1-3.5,0.1-6v-7.8h13.9v7.8c0,4-0.3,7.6-0.8,10.8c-0.5,3.2-1.4,6.2-2.6,8.9c-1.2,2.8-2.8,5.1-4.8,6.9
	c-2,1.8-4.5,3.3-7.6,4.3C600.8,987.2,597.2,987.7,593.1,987.7z M648,986.6V892h-19.3v-10.9h52.6V892h-18.6v94.6H648z M719.4,987.7
	c-5.3,0-9.8-0.8-13.5-2.4s-6.7-3.9-8.9-6.9c-2.2-3.1-3.8-6.6-4.8-10.7c-1-4.1-1.5-8.8-1.5-14.3v-40c0-11,2.2-19.3,6.7-25
	s11.8-8.5,22.1-8.5c10.2,0,17.6,2.9,22.1,8.6c4.5,5.7,6.7,14,6.7,24.9v40c0,11-2.3,19.4-6.8,25.3C737,984.8,729.6,987.7,719.4,987.7
	z M712.3,974.9c1.9,0.9,4.3,1.3,7.2,1.3c2.9,0,5.3-0.4,7.2-1.3c1.9-0.9,3.3-2.2,4.3-4.1c1-1.8,1.6-3.8,2-6c0.4-2.2,0.5-4.9,0.5-8.1
	v-46.2c0-3.2-0.2-5.8-0.5-8c-0.4-2.1-1-4.1-2-5.9c-1-1.8-2.4-3.1-4.3-3.9c-1.9-0.8-4.3-1.2-7.2-1.2c-2.9,0-5.3,0.4-7.2,1.2
	s-3.3,2.1-4.3,3.9c-1,1.8-1.6,3.7-2,5.9c-0.4,2.1-0.5,4.8-0.5,8v46.2c0,3.2,0.2,5.9,0.5,8.1c0.4,2.2,1,4.2,2,6
	C709,972.6,710.4,974,712.3,974.9z M715.9,872.3l7.7-25.8h13.9l-14.6,25.8H715.9z M766.1,986.6V881.1h10l30,70.1v-70.1h12.3v105.5
	h-9.4l-30.4-72.1v72.1H766.1z M838.9,986.6V881.1h14.4v105.5H838.9z M900,987.7c-4.4,0-8.2-0.6-11.5-1.8s-6-2.8-8.1-4.8
	c-2.1-2-3.8-4.6-5.2-7.6c-1.3-3-2.3-6.2-2.8-9.6c-0.5-3.4-0.8-7.1-0.8-11.3v-37.3c0-4.5,0.3-8.4,0.8-11.9c0.5-3.5,1.5-6.7,2.8-9.7
	c1.3-3,3-5.5,5.2-7.4c2.1-2,4.8-3.5,8.1-4.6c3.3-1.1,7.1-1.7,11.5-1.7c9.5,0,16.3,2.6,20.4,7.7c4.1,5.1,6.2,12.7,6.2,22.7v8.4h-13.9
	v-7.4c0-1.6,0-2.9,0-3.8c0-0.9-0.1-2-0.1-3.4c-0.1-1.4-0.2-2.4-0.4-3.2c-0.2-0.8-0.4-1.7-0.7-2.7c-0.3-1-0.6-1.8-1-2.4
	c-0.4-0.6-1-1.2-1.6-1.8c-0.6-0.7-1.4-1.1-2.2-1.5c-0.8-0.3-1.8-0.6-2.9-0.8c-1.1-0.2-2.3-0.3-3.7-0.3c-2,0-3.8,0.2-5.3,0.7
	c-1.5,0.4-2.8,1.1-3.8,2.1c-1,1-1.8,2-2.4,3.2c-0.6,1.1-1.1,2.6-1.4,4.4c-0.3,1.8-0.5,3.5-0.6,5.2c-0.1,1.7-0.2,3.7-0.2,6.2V955
	c0,7.9,1,13.5,3,16.5c2,3.1,5.5,4.6,10.6,4.6c2,0,3.6-0.2,5.1-0.6c1.4-0.4,2.6-1.1,3.5-2.1c0.9-1,1.6-2,2.2-3.1
	c0.6-1.1,1-2.5,1.2-4.3c0.3-1.8,0.4-3.5,0.5-5s0.1-3.5,0.1-6v-7.8h13.9v7.8c0,4-0.3,7.6-0.8,10.8c-0.5,3.2-1.4,6.2-2.6,8.9
	c-1.2,2.8-2.8,5.1-4.8,6.9c-2,1.8-4.5,3.3-7.6,4.3C907.7,987.2,904.1,987.7,900,987.7z M970.9,987.7c-5.3,0-9.8-0.8-13.5-2.4
	s-6.7-3.9-8.9-6.9c-2.2-3.1-3.8-6.6-4.8-10.7c-1-4.1-1.5-8.8-1.5-14.3v-40c0-11,2.2-19.3,6.7-25s11.8-8.5,22.1-8.5
	c10.2,0,17.6,2.9,22.1,8.6c4.5,5.7,6.7,14,6.7,24.9v40c0,11-2.3,19.4-6.8,25.3C988.4,984.8,981.1,987.7,970.9,987.7z M963.7,974.9
	c1.9,0.9,4.3,1.3,7.2,1.3c2.9,0,5.3-0.4,7.2-1.3c1.9-0.9,3.3-2.2,4.3-4.1c1-1.8,1.6-3.8,2-6c0.4-2.2,0.5-4.9,0.5-8.1v-46.2
	c0-3.2-0.2-5.8-0.5-8c-0.4-2.1-1-4.1-2-5.9c-1-1.8-2.4-3.1-4.3-3.9c-1.9-0.8-4.3-1.2-7.2-1.2c-2.9,0-5.3,0.4-7.2,1.2
	s-3.3,2.1-4.3,3.9c-1,1.8-1.6,3.7-2,5.9c-0.4,2.1-0.5,4.8-0.5,8v46.2c0,3.2,0.2,5.9,0.5,8.1c0.4,2.2,1,4.2,2,6
	C960.4,972.6,961.8,974,963.7,974.9z M1042.4,987.7c-8.9,0-15.6-2.7-20.3-8.2c-4.6-5.5-7.2-13-7.8-22.5l13.1-3.6
	c0.9,15.1,5.9,22.7,15,22.7c3.8,0,6.7-1,8.6-3.2c2-2.1,3-5.2,3-9.3c0-2.2-0.3-4.3-0.8-6.2c-0.5-1.9-1.4-3.6-2.6-5.3
	c-1.2-1.7-2.4-3.1-3.4-4.2c-1.1-1.1-2.6-2.6-4.6-4.5l-17.7-15.7c-3.6-3.2-6.2-6.6-7.8-10.2c-1.6-3.6-2.5-8-2.5-13.1
	c0-7.6,2.2-13.6,6.7-17.9c4.4-4.3,10.5-6.4,18.2-6.5c8.4-0.1,14.8,2,19,6.5c4.2,4.5,6.7,11.4,7.6,20.8l-12.4,3.4
	c-0.2-2.3-0.4-4.3-0.7-6.1c-0.3-1.8-0.8-3.6-1.5-5.4c-0.7-1.8-1.5-3.3-2.5-4.4c-1-1.1-2.3-2-3.9-2.7c-1.6-0.7-3.5-0.9-5.6-0.8
	c-7.8,0.6-11.6,4.4-11.6,11.6c0,3.1,0.5,5.7,1.6,7.8c1.1,2.1,2.8,4.3,5.3,6.6l17.8,15.7c4.6,4.2,8.3,8.6,11,13.4
	c2.7,4.8,4.1,10.1,4.1,16.2c0,7.7-2.3,13.8-7,18.4C1056,985.5,1049.9,987.7,1042.4,987.7z"/>
<linearGradient id="Sombra_1_" gradientUnits="userSpaceOnUse" x1="579.0342" y1="763.501" x2="579.0342" y2="316.8249">
	<stop  offset="0.2" style="stop-color:#00394E"/>
	<stop  offset="0.8" style="stop-color:#0D71B9"/>
</linearGradient>
<path id="Sombra" class="st2" d="M387.3,536.3l-42,24v-71l42-34V536.3z M345.3,763.5h43V590.3l-43,20V763.5z M430.6,763.5l42.6-0.2
	V356.8h-42.6V763.5z M771.8,511.1l-30.1,10.8l30.1,49.5v191.5h41.5V398.3l0.5,0.5v-0.6h-42V511.1z M941.7,559.8v-40.9l-6.8-4.6
	l6.3,6v38.1l-86-71.1v74l86,50.5v37.3l-85-38.8v97l85,14.7v40.8h42.5v-203H941.7z M643.8,436.8l85,50v-102l-85-68V436.8z
	 M642.8,673.8l86,14v-136l-86-38V673.8z M260.5,519.7l-0.3,0.3v0.4l0,0v37.1l-86,69.9v108l43-8v-61l-24,12v-27l67-40.2v152.2h0v0.2
	h0.3h42.2V519.7H260.5z"/>
<linearGradient id="Gabel_1_" gradientUnits="userSpaceOnUse" x1="600.7666" y1="763.825" x2="600.7666" y2="198.3249">
	<stop  offset="0" style="stop-color:#A37C37"/>
	<stop  offset="1" style="stop-color:#F2F2F2"/>
</linearGradient>
<path id="Gabel" class="st3" d="M473.3,319.3l128-121v565h-128V319.3z M345.3,560.3l42-24v-81l-42,34V560.3z M430.8,356.8v407h-42.5
	V590.3l-43,20v153.5h-42.5v-284L430.8,356.8z M193.3,651.3v27l24-12v61l-43,8v-108l86-69.9v-37.1l-127,120v123h127V611.1
	L193.3,651.3z M856.3,707.3v-97l85,38.8v-37.3l-86-50.5v-74l86,71.1v-38.1l-128-122v365h128V722L856.3,707.3z M1026.3,736.3V600.8
	l-43-40.5v203h85V743L1026.3,736.3z M771.8,572.3v191.5h-170v-565l170,161v152.2l-30.1,10.8L771.8,572.3z M728.8,552.8l-86-38v160
	l86,14V552.8z M728.8,385.8l-85-68v120l85,50V385.8z"/>
<path id="Lineas" class="st4" d="M473.3,319.3l128-121v565h-128V319.3z M345.3,560.3l42-24v-81l-42,34V560.3z M430.8,356.8v407
	h-42.5V590.3l-43,20v153.5h-42.5v-284L430.8,356.8z M193.3,651.3v27l24-12v61l-43,8v-108l86-69.9v-37.1l-127,120v123h127V611.1
	L193.3,651.3z M856.3,707.3v-97l85,38.8v-37.3l-86-50.5v-74l86,71.1v-38.1l-128-122v365h128V722L856.3,707.3z M1026.3,736.3V600.8
	l-43-40.5v203h85V743L1026.3,736.3z M771.8,572.3v191.5h-170v-565l170,161v152.2l-30.1,10.8L771.8,572.3z M728.8,552.8l-86-38v160
	l86,14V552.8z M728.8,385.8l-85-68v120l85,50V385.8z"/>
</svg>
